<svg width="128" height="128" viewBox="0 0 128 128" fill="none" xmlns="http://www.w3.org/2000/svg">
  <!-- Professional Male Avatar 2 - Orange/Amber theme -->
  <defs>
    <linearGradient id="bgGradientM2" x1="0%" y1="0%" x2="100%" y2="100%">
      <stop offset="0%" style="stop-color:#F59E0B;stop-opacity:1" />
      <stop offset="100%" style="stop-color:#EF4444;stop-opacity:1" />
    </linearGradient>
    <clipPath id="circleClipM2">
      <circle cx="64" cy="64" r="64"/>
    </clipPath>
  </defs>
  
  <!-- Background circle -->
  <circle cx="64" cy="64" r="64" fill="url(#bgGradientM2)"/>
  
  <g clip-path="url(#circleClipM2)">
    <!-- Head -->
    <circle cx="64" cy="51" r="23" fill="#FFF" opacity="0.95"/>
    
    <!-- Hair (short professional cut) -->
    <path d="M41 48 Q41 30 64 27 Q87 30 87 48 L87 52 L41 52 Z" fill="#F59E0B" opacity="0.35"/>
    
    <!-- Beard -->
    <path d="M52 60 Q64 66 76 60" fill="#F59E0B" opacity="0.25"/>
    <ellipse cx="64" cy="62" rx="10" ry="6" fill="#F59E0B" opacity="0.2"/>
    
    <!-- Body/Shoulders -->
    <ellipse cx="64" cy="112" rx="47" ry="37" fill="#FFF" opacity="0.95"/>
    
    <!-- Suit jacket -->
    <path d="M64 74 L51 84 L51 104 L77 104 L77 84 Z" fill="#F59E0B" opacity="0.3"/>
    <line x1="64" y1="74" x2="64" y2="104" stroke="#EF4444" stroke-width="3" opacity="0.4"/>
    
    <!-- Pocket square detail -->
    <rect x="70" y="82" width="5" height="6" fill="#EF4444" opacity="0.5"/>
  </g>
</svg>