<svg width="187" height="23" viewBox="0 0 187 23" fill="none" xmlns="http://www.w3.org/2000/svg">
<g clip-path="url(#clip0_3_3)">
<path d="M52.2645 22.8919C50.8826 22.8919 49.6935 22.6301 48.7031 22.1066C47.7097 21.5831 46.9238 20.8519 46.3424 19.913H45.1972V22.5732H40.172V17.7877H42.6291V1.03563H47.6542V8.66626H47.7623C48.2356 7.92084 48.8871 7.34043 49.714 6.92504C50.5408 6.50965 51.54 6.29911 52.7028 6.29911C54.2863 6.29911 55.6331 6.64622 56.7433 7.33759C57.8535 8.02895 58.7008 8.99914 59.2822 10.2481C59.8636 11.4972 60.1558 12.9482 60.1558 14.5955C60.1558 16.2428 59.8548 17.6654 59.2559 18.9172C58.6541 20.1663 57.7717 21.1421 56.606 21.842C55.4403 22.5419 53.9941 22.8919 52.2645 22.8919ZM51.3062 18.6384C52.5976 18.6384 53.5588 18.2743 54.1869 17.5487C54.8151 16.8232 55.1277 15.8388 55.1277 14.5983C55.1277 13.3579 54.8151 12.3735 54.1869 11.648C53.5588 10.9224 52.5976 10.5583 51.3062 10.5583C50.1785 10.5583 49.2845 10.8627 48.63 11.4744C47.9756 12.0861 47.6484 12.9311 47.6484 14.0123V15.1816C47.6484 16.2627 47.9756 17.1077 48.63 17.7223C49.2845 18.334 50.1756 18.6384 51.3062 18.6384Z" fill="white"/>
<path d="M69.5458 22.8919C67.7432 22.8919 66.1772 22.5505 64.8508 21.8676C63.5214 21.1848 62.4989 20.2203 61.7802 18.9713C61.0615 17.7223 60.7021 16.2457 60.7021 14.5443C60.7021 12.8429 61.0527 11.3748 61.7539 10.1429C62.4551 8.91094 63.4542 7.96351 64.7573 7.29775C66.0574 6.63199 67.5912 6.30196 69.3588 6.30196C71.1264 6.30196 72.6076 6.6263 73.8639 7.27214C75.1202 7.92083 76.0785 8.8455 76.7446 10.049C77.4078 11.2553 77.7409 12.6978 77.7409 14.3821V15.9498H65.5374C65.7389 16.9769 66.1743 17.7536 66.8491 18.2771C67.5211 18.8006 68.4151 19.0623 69.5253 19.0623C70.4164 19.0623 71.1118 18.9258 71.6143 18.6498C72.1139 18.3767 72.4732 17.9357 72.6924 17.3325H77.7175C77.3728 19.0709 76.4788 20.4309 75.0413 21.4124C73.6039 22.3968 71.775 22.889 69.5546 22.889L69.5458 22.8919ZM65.6133 12.7632H72.929C72.7654 11.8784 72.3885 11.2183 71.7954 10.783C71.2023 10.3477 70.3989 10.1315 69.3793 10.1315C68.3596 10.1315 67.5591 10.3534 66.9222 10.7973C66.2853 11.2411 65.847 11.8955 65.6133 12.7661V12.7632Z" fill="white"/>
<path d="M84.6446 22.8663C82.6784 22.8663 81.1445 22.4111 80.0431 21.4978C78.9417 20.5845 78.3924 19.3668 78.3924 17.8418C78.3924 16.3168 78.9709 15.045 80.1249 14.1858C81.2819 13.3266 82.9326 12.897 85.0799 12.897H89.474V12.3109C89.474 10.857 88.5274 10.1315 86.6342 10.1315C84.9602 10.1315 83.9405 10.6806 83.5753 11.7817H78.6057C78.9884 9.97501 79.8532 8.60935 81.2001 7.68753C82.5469 6.7657 84.3495 6.30479 86.605 6.30479C89.0971 6.30479 91.002 6.83968 92.3109 7.91229C93.6227 8.9849 94.2771 10.5497 94.2771 12.6039V17.7877H96.6261V22.5732H91.601V19.913H90.4528C89.8889 20.869 89.141 21.603 88.2148 22.1066C87.2858 22.6102 86.0937 22.8634 84.6388 22.8634L84.6446 22.8663ZM85.4072 19.1961C86.2077 19.1961 86.9118 19.0623 87.5224 18.7977C88.133 18.5331 88.6092 18.169 88.9569 17.7081C89.3046 17.2472 89.477 16.7322 89.477 16.166V16.0863H85.2991C83.8967 16.0863 83.1955 16.5928 83.1955 17.6028C83.1955 18.1178 83.3913 18.5104 83.7828 18.7864C84.1742 19.0623 84.7147 19.1989 85.4072 19.1989V19.1961Z" fill="white"/>
<path d="M104.903 22.8663C102.554 22.8663 100.772 22.2773 99.5506 21.0995C98.3323 19.9216 97.7217 18.3112 97.7217 16.2741V6.62061H102.747V15.3153C102.747 16.3965 103.024 17.1988 103.58 17.7223C104.135 18.2458 104.976 18.5075 106.104 18.5075C107.232 18.5075 108.187 18.2202 108.806 17.6426C109.426 17.0679 109.735 16.2371 109.735 15.156V6.62061H114.76V17.7877H117.218V22.5732H112.192V19.913H111.047C110.372 20.869 109.572 21.603 108.646 22.1066C107.717 22.6102 106.469 22.8634 104.906 22.8634L104.903 22.8663Z" fill="white"/>
<path d="M124.013 22.5732C122.739 22.5732 121.752 22.2603 121.051 21.6287C120.35 20.9999 119.999 20.0382 119.999 18.7437V10.4473H117.267V6.61777H120.052V1.83511H124.966V6.62062H128.571V10.4502H125.021V18.7465H128.954V22.5761H124.013V22.5732Z" fill="white"/>
<path d="M132.86 5.26348C132.112 5.26348 131.478 5.00742 130.949 4.49245C130.42 3.97749 130.157 3.35725 130.157 2.63174C130.157 1.90623 130.42 1.286 130.949 0.771029C131.478 0.256061 132.115 0 132.86 0C133.605 0 134.242 0.256061 134.771 0.771029C135.299 1.286 135.562 1.90623 135.562 2.63174C135.562 3.35725 135.299 3.98033 134.771 4.49245C134.242 5.00458 133.605 5.26348 132.86 5.26348ZM130.347 22.5732V6.62061H135.372V22.5732H130.347Z" fill="white"/>
<path d="M139.384 22.5732V10.4501H136.599V6.62061H139.439V4.06853C139.439 2.75693 139.79 1.79243 140.491 1.17219C141.192 0.551954 142.188 0.241836 143.48 0.241836H148.23V4.07138H144.353V6.62345H147.903V10.453H144.409V22.5761H139.384V22.5732ZM152.627 5.26348C151.879 5.26348 151.245 5.00742 150.717 4.49245C150.188 3.97749 149.925 3.35725 149.925 2.63174C149.925 1.90623 150.188 1.286 150.717 0.771029C151.245 0.256061 151.882 0 152.627 0C153.372 0 154.009 0.256061 154.538 0.771029C155.067 1.286 155.33 1.90623 155.33 2.63174C155.33 3.35725 155.067 3.98033 154.538 4.49245C154.009 5.00458 153.372 5.26348 152.627 5.26348ZM150.115 22.5732V6.62061H155.14V22.5732H150.115Z" fill="white"/>
<path d="M165.488 22.8919C163.686 22.8919 162.12 22.5505 160.793 21.8676C159.464 21.1848 158.441 20.2203 157.723 18.9713C157.004 17.7223 156.645 16.2457 156.645 14.5443C156.645 12.8429 156.995 11.3748 157.696 10.1429C158.398 8.91094 159.397 7.96351 160.7 7.29775C162 6.63199 163.534 6.30196 165.301 6.30196C167.069 6.30196 168.55 6.6263 169.806 7.27214C171.063 7.92083 172.024 8.8455 172.687 10.049C173.353 11.2553 173.683 12.6978 173.683 14.3821V15.9498H161.48C161.678 16.9769 162.117 17.7536 162.789 18.2771C163.461 18.8006 164.355 19.0623 165.465 19.0623C166.356 19.0623 167.054 18.9258 167.554 18.6498C168.053 18.3767 168.413 17.9357 168.632 17.3325H173.657C173.312 19.0709 172.418 20.4309 170.981 21.4124C169.543 22.3968 167.715 22.889 165.494 22.889L165.488 22.8919ZM161.556 12.7632H168.874C168.711 11.8784 168.331 11.2183 167.741 10.783C167.148 10.3477 166.344 10.1315 165.325 10.1315C164.305 10.1315 163.504 10.3534 162.868 10.7973C162.231 11.2411 161.792 11.8955 161.556 12.7661V12.7632Z" fill="white"/>
<path d="M176.681 22.5732V11.4061H174.224V6.6206H179.249V9.81284H180.397C180.815 8.66056 181.499 7.80418 182.445 7.24653C183.392 6.68889 184.447 6.41006 185.612 6.41006H187.006V10.6635H185.396C184.049 10.6635 183.079 11.0277 182.489 11.7532C181.896 12.4816 181.601 13.429 181.601 14.5983V22.5761H176.687L176.681 22.5732Z" fill="white"/>
<path d="M40.8498 1.03846L32.1405 22.5732H26.1863L20.5213 8.56098H16.1097C15.9256 7.47983 15.4027 6.63767 14.5379 6.03451C13.6731 5.43418 12.5863 5.1326 11.2774 5.1326C9.38418 5.1326 7.8854 5.72723 6.78396 6.91365C5.68251 8.10007 5.13325 9.75024 5.13325 11.8585C5.13325 13.9667 5.68251 15.6169 6.78396 16.8033C7.8854 17.9926 9.38418 18.5844 11.2774 18.5844C12.5863 18.5844 13.6731 18.2856 14.5379 17.6825C15.4027 17.0793 15.9256 16.2371 16.1097 15.156H21.4592C21.2225 16.7692 20.6499 18.1661 19.7413 19.344C18.8297 20.5219 17.6552 21.4266 16.2178 22.0554C14.7804 22.6842 13.1326 23 11.2774 23C9.00145 23 7.01769 22.5419 5.32316 21.6286C3.63155 20.7182 2.31975 19.4237 1.3936 17.7479C0.464535 16.0721 0 14.109 0 11.8585C0 9.60798 0.464535 7.62209 1.3936 5.95769C2.31975 4.29044 3.63155 3.0016 5.32316 2.08832C7.01769 1.17503 9.00145 0.716965 11.2774 0.716965C13.1326 0.716965 14.7804 1.03277 16.2178 1.66155C17.3543 2.15944 18.3243 2.8252 19.1306 3.66167H24.1383L29.1897 16.8318H29.327L35.3076 1.03846H40.8498Z" fill="white"/>
<path d="M35.6581 11.5825L35.4682 11.6451C32.3947 12.6608 30.4723 14.9398 29.7536 18.425L29.7098 18.6413H28.7456L28.7018 18.425C27.9831 14.9426 26.0607 12.6608 22.9901 11.6451L22.8031 11.5825L22.7973 10.7204L22.9872 10.6578C26.0607 9.64498 27.9831 7.36319 28.7018 3.87791L28.7456 3.66168H29.7098L29.7536 3.87791C30.4723 7.36319 32.3947 9.64498 35.4653 10.6578L35.6523 10.7204L35.6581 11.5825Z" fill="#91C3EB"/>
</g>
<defs>
<clipPath id="clip0_3_3">
<rect width="187" height="23" fill="white"/>
</clipPath>
</defs>
</svg>
