<svg width="25" height="25" viewBox="0 0 25 25" fill="none" xmlns="http://www.w3.org/2000/svg">
<path d="M20.8333 9.375H11.4583C10.3077 9.375 9.375 10.3077 9.375 11.4583V20.8333C9.375 21.9839 10.3077 22.9167 11.4583 22.9167H20.8333C21.9839 22.9167 22.9167 21.9839 22.9167 20.8333V11.4583C22.9167 10.3077 21.9839 9.375 20.8333 9.375Z" fill="#91C3EB" stroke="#91C3EB" stroke-width="1.66667" stroke-linecap="round" stroke-linejoin="round"/>
<path d="M5.20833 15.625H4.16667C3.61413 15.625 3.08423 15.4055 2.69353 15.0148C2.30283 14.6241 2.08333 14.0942 2.08333 13.5416V4.16665C2.08333 3.61411 2.30283 3.08421 2.69353 2.69351C3.08423 2.30281 3.61413 2.08331 4.16667 2.08331H13.5417C14.0942 2.08331 14.6241 2.30281 15.0148 2.69351C15.4055 3.08421 15.625 3.61411 15.625 4.16665V5.20831" stroke="#91C3EB" stroke-width="2" stroke-linecap="round" stroke-linejoin="round"/>
</svg>
